<?xml version="1.0" encoding="UTF-8"?>
<svg id="Capa_2" data-name="Capa 2" xmlns="http://www.w3.org/2000/svg" viewBox="0 0 149.67 55.37">
  <defs>
    <style>
      .cls-1 {
        fill: #e52521;
      }

      .cls-2 {
        fill: #FFFFFF;
        fill-rule: evenodd;
      }
    </style>
  </defs>
  <g id="Capa_1-2" data-name="Capa 1">
    <path class="cls-1" d="m142.38,40.53c-.28.62-.68,1.08-1.19,1.34-.51.27-1.25.4-2.21.4h-3.8c-1.42,0-2.51-.35-3.26-1.05-.75-.7-1.13-1.71-1.13-3.02v-5.97c0-1.31.38-2.32,1.14-3.03.76-.71,1.85-1.06,3.25-1.06h4.04c.75,0,1.37.09,1.83.29.47.19.91.52,1.32,1v-1.28h6.23v9.24h1.06v4.89h-3.83c-.94,0-1.66-.13-2.18-.39-.51-.26-.93-.71-1.28-1.35m-5.3-3.15h5.3v-4.35h-5.3v4.35Zm-34.7,4.89v-14.12h6.23v1.13c.4-.4.84-.69,1.3-.87.47-.17,1.02-.27,1.66-.27h3.31c.71,0,1.31.11,1.82.32.51.21.84.49.99.86.23-.38.62-.68,1.15-.88s1.21-.3,1.99-.3h3.43c1.61,0,2.67.26,3.21.77s.8,1.57.8,3.16v5.3h1.14v4.89h-3.34c-1.35,0-2.36-.33-3.05-1-.68-.68-1.02-1.67-1.02-3.01v-5.23h-3.6v9.24h-6.17v-9.24h-3.65v9.24h-6.2Zm-8.93,0v-14.12h6.23v14.12h-6.23Zm0-15.83v-3.4h6.23v3.4h-6.23Zm-1.81,15.83h-6.79l-2.48-5.7h-2.04l-2.48,5.7h-6.79l3.55-7.44-3.55-6.69h6.88l2.55,5.21h1.76l2.54-5.21h6.88l-3.54,6.69,3.54,7.44h0Zm-33.59-15.05l2.84-3.55h4.21l-4.99,3.55h-2.06Zm4.82,13.3c-.28.62-.68,1.08-1.19,1.34-.51.27-1.25.4-2.21.4h-3.8c-1.42,0-2.51-.35-3.26-1.05-.75-.7-1.13-1.71-1.13-3.02v-5.97c0-1.31.38-2.32,1.14-3.03.76-.71,1.85-1.06,3.25-1.06h4.04c.75,0,1.37.09,1.83.29.47.19.91.52,1.32,1v-1.28h6.23v9.24h1.06v4.89h-3.83c-.94,0-1.66-.13-2.18-.39-.51-.26-.93-.71-1.28-1.35Zm-5.3-3.15h5.3v-4.35h-5.3v4.35Zm-21.47-1.47c.09-.57.18-1.11.29-1.61.1-.5.21-.98.33-1.44l2.64-9.82h9.45v19.22h-6.5v-9.5c0-.65.04-1.3.1-1.97.07-.66.17-1.33.29-1.99h-.21l-3.68,13.46h-5.36l-3.71-13.46h-.18c.12.66.22,1.32.29,1.99.06.67.1,1.32.1,1.97v9.5h-6.5v-19.22h9.45l2.64,9.82c.1.38.2.81.29,1.28.09.48.19,1.06.3,1.76h-.02Z"/>
    <path class="cls-2" d="m16.41,28.31C12.01-3.13,58.49-2.29,55.6,25.77,46.12.54,17.71,9.76,16.41,28.31"/>
    <path class="cls-2" d="m37.86.01c-57.46-1.03-43.82,65.36,2.89,54.06C1.57,44.43,2.65,6.9,37.86.01"/>
  </g>
</svg>
